<svg width="231" height="225" viewBox="0 0 231 225" fill="none" xmlns="http://www.w3.org/2000/svg">
<g clip-path="url(#clip0_1_2)">
<path d="M227.449 198.5H0.550781L114 2L227.449 198.5Z" stroke="black" stroke-width="2"/>
<path d="M1.40909 221V209.364H5.34091C6.25379 209.364 7 209.528 7.57955 209.858C8.16288 210.184 8.5947 210.625 8.875 211.182C9.1553 211.739 9.29545 212.36 9.29545 213.045C9.29545 213.731 9.1553 214.354 8.875 214.915C8.59849 215.475 8.17046 215.922 7.59091 216.256C7.01136 216.585 6.26894 216.75 5.36364 216.75H2.54545V215.5H5.31818C5.94318 215.5 6.44508 215.392 6.82386 215.176C7.20265 214.96 7.47727 214.669 7.64773 214.301C7.82197 213.93 7.90909 213.511 7.90909 213.045C7.90909 212.58 7.82197 212.163 7.64773 211.795C7.47727 211.428 7.20076 211.14 6.81818 210.932C6.43561 210.72 5.92803 210.614 5.29545 210.614H2.81818V221H1.40909ZM17.929 212.273C17.8608 211.697 17.5843 211.25 17.0994 210.932C16.6146 210.614 16.0199 210.455 15.3153 210.455C14.8002 210.455 14.3494 210.538 13.9631 210.705C13.5805 210.871 13.2813 211.1 13.0653 211.392C12.8532 211.684 12.7472 212.015 12.7472 212.386C12.7472 212.697 12.821 212.964 12.9688 213.188C13.1203 213.407 13.3134 213.591 13.5483 213.739C13.7831 213.883 14.0294 214.002 14.2869 214.097C14.5445 214.187 14.7812 214.261 14.9972 214.318L16.179 214.636C16.482 214.716 16.8191 214.826 17.1903 214.966C17.5653 215.106 17.9233 215.297 18.2642 215.54C18.6089 215.778 18.893 216.085 19.1165 216.46C19.34 216.835 19.4517 217.295 19.4517 217.841C19.4517 218.47 19.2869 219.038 18.9574 219.545C18.6316 220.053 18.1544 220.456 17.5256 220.756C16.9006 221.055 16.1411 221.205 15.2472 221.205C14.4138 221.205 13.6922 221.07 13.0824 220.801C12.4763 220.532 11.9991 220.157 11.6506 219.676C11.3059 219.195 11.1108 218.636 11.0653 218H12.5199C12.5578 218.439 12.7055 218.803 12.9631 219.091C13.2244 219.375 13.554 219.587 13.9517 219.727C14.3532 219.864 14.785 219.932 15.2472 219.932C15.785 219.932 16.268 219.845 16.696 219.67C17.1241 219.492 17.4631 219.246 17.7131 218.932C17.9631 218.614 18.0881 218.242 18.0881 217.818C18.0881 217.432 17.9801 217.117 17.7642 216.875C17.5483 216.633 17.2642 216.436 16.9119 216.284C16.5597 216.133 16.179 216 15.7699 215.886L14.3381 215.477C13.429 215.216 12.7093 214.843 12.179 214.358C11.6487 213.873 11.3835 213.239 11.3835 212.455C11.3835 211.803 11.5597 211.235 11.9119 210.75C12.268 210.261 12.7453 209.883 13.3438 209.614C13.946 209.341 14.6184 209.205 15.3608 209.205C16.1108 209.205 16.7775 209.339 17.3608 209.608C17.9441 209.873 18.4063 210.237 18.7472 210.699C19.0919 211.161 19.2737 211.686 19.2926 212.273H17.929ZM20.7685 209.364H22.3821L25.6094 214.795H25.7457L28.973 209.364H30.5866L26.3821 216.205V221H24.973V216.205L20.7685 209.364Z" fill="black"/>
</g>
<defs>
<clipPath id="clip0_1_2">
<rect width="231" height="225" fill="white"/>
</clipPath>
</defs>
</svg>
