<svg width="59" height="59" viewBox="0 0 59 59" fill="none" xmlns="http://www.w3.org/2000/svg">
<path d="M49.918 36.5H10.082L30 2L49.918 36.5Z" stroke="white" stroke-width="2"/>
<path d="M10.4091 55V43.3636H14.3409C15.2538 43.3636 16 43.5284 16.5795 43.858C17.1629 44.1837 17.5947 44.625 17.875 45.1818C18.1553 45.7386 18.2955 46.3598 18.2955 47.0455C18.2955 47.7311 18.1553 48.3542 17.875 48.9148C17.5985 49.4754 17.1705 49.9223 16.5909 50.2557C16.0114 50.5852 15.2689 50.75 14.3636 50.75H11.5455V49.5H14.3182C14.9432 49.5 15.4451 49.392 15.8239 49.1761C16.2027 48.9602 16.4773 48.6686 16.6477 48.3011C16.822 47.9299 16.9091 47.5114 16.9091 47.0455C16.9091 46.5795 16.822 46.1629 16.6477 45.7955C16.4773 45.428 16.2008 45.1402 15.8182 44.9318C15.4356 44.7197 14.928 44.6136 14.2955 44.6136H11.8182V55H10.4091ZM26.929 46.2727C26.8608 45.697 26.5843 45.25 26.0994 44.9318C25.6146 44.6136 25.0199 44.4545 24.3153 44.4545C23.8002 44.4545 23.3494 44.5379 22.9631 44.7045C22.5805 44.8712 22.2813 45.1004 22.0653 45.392C21.8532 45.6837 21.7472 46.0152 21.7472 46.3864C21.7472 46.697 21.821 46.964 21.9688 47.1875C22.1203 47.4072 22.3134 47.5909 22.5483 47.7386C22.7831 47.8826 23.0294 48.0019 23.2869 48.0966C23.5445 48.1875 23.7812 48.2614 23.9972 48.3182L25.179 48.6364C25.482 48.7159 25.8191 48.8258 26.1903 48.9659C26.5653 49.1061 26.9233 49.2973 27.2642 49.5398C27.6089 49.7784 27.893 50.0852 28.1165 50.4602C28.34 50.8352 28.4517 51.2955 28.4517 51.8409C28.4517 52.4697 28.2869 53.0379 27.9574 53.5455C27.6316 54.053 27.1544 54.4564 26.5256 54.7557C25.9006 55.0549 25.1411 55.2045 24.2472 55.2045C23.4138 55.2045 22.6922 55.0701 22.0824 54.8011C21.4763 54.5322 20.9991 54.1572 20.6506 53.6761C20.3059 53.1951 20.1108 52.6364 20.0653 52H21.5199C21.5578 52.4394 21.7055 52.803 21.9631 53.0909C22.2244 53.375 22.554 53.5871 22.9517 53.7273C23.3532 53.8636 23.785 53.9318 24.2472 53.9318C24.785 53.9318 25.268 53.8447 25.696 53.6705C26.1241 53.4924 26.4631 53.2462 26.7131 52.9318C26.9631 52.6136 27.0881 52.2424 27.0881 51.8182C27.0881 51.4318 26.9801 51.1174 26.7642 50.875C26.5483 50.6326 26.2642 50.4356 25.9119 50.2841C25.5597 50.1326 25.179 50 24.7699 49.8864L23.3381 49.4773C22.429 49.2159 21.7093 48.8428 21.179 48.358C20.6487 47.8731 20.3835 47.2386 20.3835 46.4545C20.3835 45.803 20.5597 45.2348 20.9119 44.75C21.268 44.2614 21.7453 43.8826 22.3438 43.6136C22.946 43.3409 23.6184 43.2045 24.3608 43.2045C25.1108 43.2045 25.7775 43.339 26.3608 43.608C26.9441 43.8731 27.4063 44.2367 27.7472 44.6989C28.0919 45.161 28.2737 45.6856 28.2926 46.2727H26.929ZM29.7685 43.3636H31.3821L34.6094 48.7955H34.7457L37.973 43.3636H39.5866L35.3821 50.2045V55H33.973V50.2045L29.7685 43.3636Z" fill="white"/>
</svg>
